<svg xmlns="http://www.w3.org/2000/svg" aria-hidden="true" style="position:absolute;width:0;height:0;overflow:hidden"><defs><symbol id="down-arrow" viewBox="0 0 48 32"><path stroke-linecap="round" stroke-linejoin="round" stroke-width="8" d="m4 6 20 20L44 6"/></symbol><symbol id="favorite" viewBox="0 0 32 32"><path stroke-linecap="round" stroke-linejoin="round" stroke-width="2.462" d="M27.787 6.147a7.326 7.326 0 0 0-10.373 0L16.001 7.56l-1.413-1.413a7.333 7.333 0 0 0-10.374 0 7.333 7.333 0 0 0 0 10.374l11.787 11.787 11.787-11.787a7.326 7.326 0 0 0 0-10.373z"/></symbol><symbol id="log-in" viewBox="0 0 32 32"><path fill="none" stroke="#f0aa8d" stroke-linecap="round" stroke-linejoin="round" stroke-width="3.2" d="M20 4h1.6c2.24 0 3.36 0 4.216.436a3.996 3.996 0 0 1 1.748 1.748C28 7.04 28 8.16 28 10.4v11.2c0 2.24 0 3.36-.436 4.216a4.001 4.001 0 0 1-1.748 1.748C24.96 28 23.84 28 21.6 28H20M13.333 9.333 20 16m0 0-6.667 6.667M20 16H4" style="stroke:var(--color1, #f0aa8d)"/></symbol><symbol id="ukraine" viewBox="0 0 32 32"><path fill="#ffda44" d="M16 32c8.837 0 16-7.163 16-16S24.837 0 16 0 0 7.163 0 16s7.163 16 16 16z" style="fill:var(--color2, #ffda44)"/><path fill="#338af3" d="M0 16C0 7.164 7.163 0 16 0s16 7.163 16 16z" style="fill:var(--color3, #338af3)"/></symbol><symbol id="close" viewBox="0 0 20 20"><path stroke="#000" d="M10 8.586 2.929 1.515 1.515 2.929 8.586 10l-7.071 7.071 1.414 1.414L10 11.414l7.071 7.071 1.414-1.414L11.414 10l7.071-7.071-1.414-1.414L10 8.586z"/></symbol><symbol id="book-open" fill="none" viewBox="0 0 32 32"><path stroke="#000" stroke-linecap="round" stroke-linejoin="round" stroke-width="1.5" d="M14.667 4.133c0-.746 0-1.12-.146-1.405a1.333 1.333 0 0 0-.582-.583C13.653 2 13.28 2 12.533 2h-.266c-1.494 0-2.24 0-2.811.29-.502.256-.91.664-1.165 1.166C8 4.026 8 4.773 8 6.266V14l.067-.1c.463-.695.694-1.042 1-1.293.271-.223.583-.39.919-.492.378-.115.796-.115 1.63-.115h.917c.747 0 1.12 0 1.406-.145.25-.128.454-.332.582-.583.146-.285.146-.659.146-1.405V4.133ZM1.333 4.133c0-.746 0-1.12.146-1.405.127-.25.331-.455.582-.583C2.347 2 2.72 2 3.467 2h.266c1.494 0 2.24 0 2.81.29.503.256.91.664 1.166 1.166C8 4.026 8 4.773 8 6.266V14l-.067-.1c-.463-.695-.694-1.042-1-1.293a2.665 2.665 0 0 0-.919-.492C5.635 12 5.218 12 4.384 12h-.917c-.747 0-1.12 0-1.406-.145a1.334 1.334 0 0 1-.582-.583c-.146-.285-.146-.659-.146-1.405V4.133Z"/></symbol><symbol id="star" viewBox="0 0 32 32"><path fill="#ffc531" d="M12.4 9.394 16 2.572l3.6 6.822a2.2 2.2 0 0 0 1.571 1.141l7.601 1.315-5.376 5.532a2.2 2.2 0 0 0-.6 1.846l1.098 7.635-6.922-3.404a2.199 2.199 0 0 0-1.941 0l-6.922 3.404 1.098-7.635a2.2 2.2 0 0 0-.6-1.846L3.231 11.85l7.601-1.315a2.202 2.202 0 0 0 1.571-1.141z" style="stroke:#ffc531;stroke-width:2.4"/></symbol></defs></svg>